HIERARCHY
ROOT Hips
{
  OFFSET 43.0226 92.2305 122.392
  CHANNELS 6 Xposition Yposition Zposition Zrotation Xrotation Yrotation
  JOINT RightUpLeg
  {
    OFFSET -8.9458 -8.66707 0.101652
    CHANNELS 3 Zrotation Xrotation Yrotation
    JOINT RightLeg
    {
      OFFSET 0 -44.4227 1.3727
      CHANNELS 3 Zrotation Xrotation Yrotation
      JOINT RightFoot
      {
        OFFSET 0.253549 -42.0924 -1.46059
        CHANNELS 3 Zrotation Xrotation Yrotation
        JOINT RightToes
        {
          OFFSET 0.04 -4.41509 8.4991
          CHANNELS 3 Zrotation Xrotation Yrotation
          End Site
          {
            OFFSET -0.08 -0.137448 9.77979
          }
        }
      }
    }
  }
  JOINT Spine
  {
    OFFSET 0 11.8905 0
    CHANNELS 3 Zrotation Xrotation Yrotation
    JOINT Spine1
    {
      OFFSET 0 25.6574 0.127663
      CHANNELS 3 Zrotation Xrotation Yrotation
      JOINT HEad
      {
        OFFSET 0 8.73416 0.011341
        CHANNELS 3 Zrotation Xrotation Yrotation
        End Site
        {
          OFFSET -0.29 12.7742 2.51395
        }
      }
      JOINT LeftShoulder1
      {
        OFFSET 8.99 -0.362252 -0.22
        CHANNELS 3 Zrotation Xrotation Yrotation
        JOINT LeftArm
        {
          OFFSET 10.2827 -0.00338 0.322123
          CHANNELS 3 Zrotation Xrotation Yrotation
          JOINT LeftForeArm
          {
            OFFSET 32.7669 0.099144 -1.42434
            CHANNELS 3 Zrotation Xrotation Yrotation
            JOINT LeftHand
            {
              OFFSET 27.5643 0.085362 1.02216
              CHANNELS 3 Zrotation Xrotation Yrotation
              End Site
              {
                OFFSET 16.7443 -0.6 1.50291
              }
            }
          }
        }
      }
      JOINT RightShoulder
      {
        OFFSET -8.99 -0.362252 -0.22
        CHANNELS 3 Zrotation Xrotation Yrotation
        JOINT RightArm
        {
          OFFSET -10.2827 -0.00338 0.322123
          CHANNELS 3 Zrotation Xrotation Yrotation
          JOINT RightForeArm
          {
            OFFSET -32.8971 0.099144 -1.42434
            CHANNELS 3 Zrotation Xrotation Yrotation
            JOINT RightHand
            {
              OFFSET -27.4921 0.085362 1.02216
              CHANNELS 3 Zrotation Xrotation Yrotation
              End Site
              {
                OFFSET -16.6312 -0.6 1.50291
              }
            }
          }
        }
      }
    }
  }
  JOINT LeftUpLeg
  {
    OFFSET 8.9458 -8.66707 0.101652
    CHANNELS 3 Zrotation Xrotation Yrotation
    JOINT LeftLeg
    {
      OFFSET 0 -44.4227 1.3727
      CHANNELS 3 Zrotation Xrotation Yrotation
      JOINT LeftFoot
      {
        OFFSET -0.253549 -42.0924 -1.46059
        CHANNELS 3 Zrotation Xrotation Yrotation
        JOINT LeftToes
        {
          OFFSET -0.04 -4.41509 8.4991
          CHANNELS 3 Zrotation Xrotation Yrotation
          End Site
          {
            OFFSET 0.08 -0.047448 9.77979
          }
        }
      }
    }
  }
}
MOTION
Frames:	7
Frame Time:	0.0166667
43.0226 92.2305 122.392 0.669851 8.95066 -149.743 -7.79863 -29.8882 -12.2473 -31.0891 42.9915 18.0209 -11.4496 -3.86442 -1.19618 0.0462048 0.000533403 0.662642 8.50667 30.5206 -6.31395 0.0472245 0.096969 -1.37353e-006 14.8373 3.61979 -15.7484 3.18055e-015 -3.18055e-015 -6.36111e-015 -107.886 -37.573 -70.3744 -121.41 40.4089 2.90048 6.46918 22.601 6.37699 -15.2564 39.7377 11.2948 -153.878 -37.696 137.276 128.841 40.7534 -1.32819 -1.60123 23.975 -5.08587 17.2955 -34.4301 14.1452 27.4442 54.8302 -44.2761 -8.53996 1.02346 -0.288304 -1.28385e-009 1.55939e-007 -4.84822e-009 
42.8915 92.2307 122.391 0.62142 8.94683 -149.314 -7.91387 -29.6236 -12.105 -31.0809 42.9587 17.7535 -11.1301 -3.7933 -1.41138 0.0462048 0.000533403 0.662642 8.50667 30.5206 -6.31395 0.0472245 0.096969 -1.37353e-006 14.8373 3.61979 -15.7484 -0 -6.36111e-015 -0 -107.886 -37.573 -70.3744 -121.41 40.4089 2.90048 6.46918 22.601 6.37699 -15.2564 39.7377 11.2948 -153.878 -37.696 137.276 128.841 40.7534 -1.32819 -1.60123 23.975 -5.08587 17.3056 -34.601 14.5383 27.5106 54.9038 -44.714 -8.07271 1.11694 -0.490828 -1.28385e-009 1.55939e-007 -4.84822e-009 
42.5208 92.2312 122.388 0.484532 8.93597 -148.1 -8.22873 -28.8588 -11.7032 -31.0498 42.8591 16.9887 -10.2319 -3.59156 -2.01957 0.0462048 0.000533403 0.662642 8.50667 30.5206 -6.31395 0.0472245 0.096969 -1.37353e-006 14.8373 3.61979 -15.7484 -1.59028e-015 -6.36111e-015 -3.18055e-015 -107.886 -37.573 -70.3744 -121.41 40.4089 2.90048 6.46918 22.601 6.37699 -15.2564 39.7377 11.2948 -153.878 -37.696 137.276 128.841 40.7534 -1.32819 -1.60123 23.975 -5.08587 17.3326 -35.0641 15.6439 27.6963 55.1081 -45.9435 -6.75458 1.38422 -1.06485 -1.28385e-009 1.55939e-007 -4.84822e-009 
41.9447 92.2319 122.384 0.271843 8.91899 -146.215 -8.6862 -27.6217 -11.0818 -30.9774 42.683 15.773 -8.85181 -3.27553 -2.96058 0.0462048 0.000533403 0.662642 8.50667 30.5206 -6.31395 0.0472245 0.0962598 -1.37353e-006 14.8373 3.61979 -15.7484 1.59028e-015 3.18055e-015 -0 -107.886 -37.573 -70.3744 -121.41 40.4089 2.90048 6.46918 22.601 6.37699 -15.2564 39.7377 11.2948 -153.878 -37.696 137.276 128.841 40.7534 -1.32819 -1.60123 23.975 -5.08587 17.3692 -35.7261 17.3439 27.9787 55.4149 -47.8314 -4.71459 1.80775 -1.96216 -1.28385e-009 1.55939e-007 -4.84822e-009 
41.5378 88.2847 122.865 -0.204264 7.96554 -145.609 -9.93453 -31.7816 -9.05809 -34.3253 47.8807 15.5399 -10.9811 -1.99856 -4.13837 0.0462048 0.000533403 0.662642 9.94152 34.6416 -5.64574 0.0472245 0.0877498 -1.37353e-006 15.5602 1.93525 -16.3387 1.59028e-015 -3.18055e-015 -6.36111e-015 -99.8475 -35.8611 -62.2638 -118.587 48.1134 -4.05124 5.91405 21.7342 2.73604 -12.6526 35.8174 10.9351 -154.003 -39.3236 138.647 128.761 42.4488 -1.08945 -8.25173 21.5251 0.721122 19.0259 -42.4596 21.3387 39.8484 62.0464 -59.385 -4.32592 3.966 -3.00863 -1.28385e-009 1.55939e-007 -4.84822e-009 
41.0935 83.2123 123.616 -0.283374 6.62001 -146.492 -10.745 -37.8615 -5.85411 -39.2836 53.5745 18.2859 -12.7326 -0.544744 -5.16273 0.0462048 0.000533403 0.662642 10.6716 39.0253 -3.32443 0.0472245 0.0752598 -1.37353e-006 16.828 0.117538 -17.0847 0 6.36111e-015 -0 -97.4108 -33.667 -59.5965 -114.951 52.9565 -9.76575 6.18652 24.8742 0.770912 -9.64289 31.5215 10.7645 -155.052 -39.8499 141.326 128.774 43.5846 -0.931966 -2.4891 26.8337 -0.340105 23.5611 -50.1882 28.2526 56.9167 68.4801 -75.8568 -2.99293 6.46537 -3.81289 -1.28385e-009 1.55939e-007 -4.84822e-009 
40.4617 77.7559 124.507 -0.424759 5.61749 -146.723 -12.8434 -44.6342 -4.56815 -48.6322 59.452 26.8718 -13.2622 0.814306 -5.81425 0.0462048 0.000533403 0.662642 12.3589 43.8251 -2.65617 0.0472245 0.0659898 -1.37353e-006 18.4525 -1.76381 -17.7073 -1.76556e-031 3.18055e-015 3.18055e-015 -98.6801 -32.0903 -60.1967 -111.821 55.8866 -14.0161 5.46967 24.3439 -1.29484 -5.51872 27.2184 9.83969 -158.877 -40.2779 143.728 128.819 44.3165 -0.657151 -6.66269 24.8959 3.39331 29.8086 -58.331 35.5998 85.1264 72.9395 -102.842 -1.37518 9.27357 -4.23516 -1.28385e-009 1.55939e-007 -4.84822e-009 
